<?xml version="1.0" encoding="utf-8"?>
<!-- Generator: Adobe Illustrator 16.0.0, SVG Export Plug-In . SVG Version: 6.00 Build 0)  -->
<!DOCTYPE svg PUBLIC "-//W3C//DTD SVG 1.1//EN" "http://www.w3.org/Graphics/SVG/1.1/DTD/svg11.dtd">
<svg version="1.1" id="Layer_1" xmlns="http://www.w3.org/2000/svg" xmlns:xlink="http://www.w3.org/1999/xlink" x="0px" y="0px"
	 width="67.356px" height="63.951px" viewBox="0 0 67.356 63.951" enable-background="new 0 0 67.356 63.951" xml:space="preserve">
<path fill="#FFFFFF" d="M67.357,44.008c0,5.498-1.691,10.455-5.59,14.355c-3.9,3.896-8.857,5.588-14.354,5.588H3.164
	c-0.832,0-1.566-0.32-2.205-0.959C0.32,62.352,0,61.62,0,60.79V21.004C0,15.442,1.949,9.747,5.848,5.849
	C9.748,1.95,15.412,0,20.908,0H46.93c5.498,0,10.419,1.727,14.317,5.625c3.899,3.899,5.627,8.852,5.627,14.414
	c0,2.749-0.698,5.848-2.039,7.894c-1.344,2.044-1.989,2.845-1.989,3.803c0,0.769,0.624,1.519,1.968,3.691
	C66.156,37.538,67.357,40.877,67.357,44.008"/>
</svg>
