<?xml version="1.0" encoding="utf-8"?>
<!-- Generator: Adobe Illustrator 16.0.0, SVG Export Plug-In . SVG Version: 6.00 Build 0)  -->
<!DOCTYPE svg PUBLIC "-//W3C//DTD SVG 1.1//EN" "http://www.w3.org/Graphics/SVG/1.1/DTD/svg11.dtd">
<svg version="1.1" id="Layer_1" xmlns="http://www.w3.org/2000/svg" xmlns:xlink="http://www.w3.org/1999/xlink" x="0px" y="0px"
	 width="88.533px" height="11.33px" viewBox="0 0 88.533 11.33" enable-background="new 0 0 88.533 11.33" xml:space="preserve">
<path fill="#FFFFFF" d="M26.131,11.33c1.215,0,1.696-0.566,2.117-1.697l2.73-7.071h-0.867l-1.959,5.352h-0.024l-1.972-5.352h-0.891
	l2.454,6.374l-0.265,0.697c-0.265,0.674-0.613,0.975-1.298,0.975c-0.421,0-0.698-0.049-0.879-0.096l-0.192,0.686
	C25.337,11.269,25.65,11.33,26.131,11.33 M23.166,7.263V4.185c-0.625-0.673-1.239-1.045-1.973-1.045
	c-1.118,0-1.924,0.817-1.924,2.608c0,1.744,0.866,2.551,1.924,2.551C21.975,8.298,22.563,7.902,23.166,7.263 M18.438,5.738
	c0-2.214,1.167-3.296,2.682-3.296c0.817,0,1.552,0.433,2.045,0.986V0h0.829v7.335c0,0.77,0.048,1.24,0.193,1.566H23.31
	c-0.073-0.219-0.144-0.592-0.144-0.928c-0.517,0.553-1.167,1.035-2.117,1.035C19.593,9.009,18.438,7.951,18.438,5.738 M14.365,8.322
	c-1.359,0-2.046-1.189-2.046-2.598c0-1.492,0.758-2.572,2.046-2.572c1.334,0,2.031,1.189,2.031,2.572
	C16.396,7.253,15.64,8.322,14.365,8.322 M14.365,9.031c1.55,0,2.861-1.189,2.861-3.293c0-2.118-1.311-3.296-2.861-3.296
	c-1.564,0-2.875,1.179-2.875,3.296C11.49,7.841,12.812,9.031,14.365,9.031 M7.433,2.562h0.829v1.25h0.024
	c0.493-0.78,1.263-1.37,2.513-1.37h0.145l-0.085,0.77c0,0-0.228-0.012-0.252-0.012c-1.034,0-1.852,0.577-2.345,1.575v4.127H7.433
	V2.562z M3.106,8.31c-0.734,0-1.347-0.373-1.973-1.033V4.198c0.601-0.638,1.191-1.046,1.973-1.046c1.057,0,1.924,0.827,1.924,2.585
	C5.03,7.529,4.225,8.31,3.106,8.31 M3.178,9.009c1.515,0,2.681-1.072,2.681-3.285c0-2.212-1.155-3.283-2.609-3.283
	c-0.95,0-1.612,0.481-2.117,1.046V0H0.304v8.902h0.829V8.035C1.698,8.611,2.36,9.009,3.178,9.009"/>
<path fill="#CBCBCF" d="M83.578,7.888l0.528-0.48c0.481,0.555,1.095,0.914,1.974,0.914c1.08,0,1.646-0.396,1.646-1.105
	c0-0.697-0.505-0.975-1.744-1.264c-1.453-0.36-2.201-0.746-2.201-1.851c0-0.902,0.782-1.66,2.153-1.66
	c1.082,0,1.78,0.36,2.345,0.915l-0.468,0.552c-0.481-0.48-1.084-0.781-1.853-0.781c-0.986,0-1.371,0.458-1.371,0.938
	c0,0.613,0.434,0.864,1.539,1.132c1.588,0.383,2.406,0.767,2.406,2.005c0,1.156-1.035,1.816-2.465,1.816
	C84.938,9.019,84.058,8.539,83.578,7.888 M78.059,5.231C78.217,3.8,79.07,3.14,79.984,3.14c1.129,0,1.707,0.89,1.791,2.092H78.059z
	 M79.996,9.031c1.203,0,1.983-0.551,2.539-1.441l-0.519-0.41c-0.481,0.746-1.022,1.154-1.974,1.154
	c-1.092,0-1.984-0.875-1.995-2.441h4.532V5.738c0-2.166-1.105-3.296-2.584-3.296c-1.334,0-2.778,1.034-2.778,3.283
	C77.218,7.888,78.517,9.031,79.996,9.031 M73.731,7.419V3.271h-1.104v-0.71h1.104V0.289h0.83v2.272h1.647v0.71h-1.647v3.982
	c0,0.672,0.218,1.033,0.998,1.033c0.241,0,0.479-0.023,0.662-0.084v0.709c-0.192,0.035-0.528,0.074-0.819,0.074
	C74.188,8.986,73.731,8.515,73.731,7.419 M68.31,8.322c-0.71,0-1.153-0.348-1.153-1.01c0-0.83,0.756-1.502,3.476-1.961v1.973
	C69.98,7.951,69.201,8.322,68.31,8.322 M68.129,9.009c0.951,0,1.769-0.35,2.503-1.012c0,0.361,0.059,0.637,0.144,0.904h0.854
	c-0.134-0.326-0.181-0.797-0.181-1.566V4.463c0-1.264-0.612-2.021-2.033-2.021c-1.25,0-2.129,0.481-2.885,1.179l0.442,0.517
	c0.663-0.576,1.373-0.997,2.37-0.997c0.83,0,1.288,0.421,1.288,1.298v0.325c-3.224,0.492-4.294,1.407-4.294,2.657
	C66.338,8.408,66.998,9.009,68.129,9.009 M63.912,2.562h0.828V8.9h-0.828V2.562z M63.887,0.204h0.876v0.892h-0.876V0.204z
	 M59.839,9.031c1.286,0,2.021-0.697,2.524-1.768L61.69,6.976c-0.446,0.938-0.938,1.346-1.815,1.346
	c-1.106,0-1.947-0.938-1.947-2.598c0-1.9,1.033-2.572,1.973-2.572c0.889,0,1.395,0.479,1.742,1.333l0.71-0.311
	c-0.397-0.926-1.071-1.733-2.431-1.733c-1.418,0-2.824,1.023-2.824,3.296C57.098,7.841,58.383,9.031,59.839,9.031 M55.065,5.724
	c0-1.382-0.696-2.572-2.03-2.572c-1.285,0-2.045,1.08-2.045,2.572c0,1.408,0.686,2.598,2.045,2.598
	C54.31,8.322,55.065,7.253,55.065,5.724 M50.16,5.738c0-2.118,1.312-3.296,2.875-3.296c1.551,0,2.86,1.179,2.86,3.296
	c0,2.104-1.31,3.293-2.86,3.293C51.482,9.031,50.16,7.841,50.16,5.738 M46.592,9.019c1.431,0,2.464-0.66,2.464-1.816
	c0-1.238-0.817-1.623-2.403-2.005c-1.107-0.268-1.541-0.519-1.541-1.132c0-0.48,0.384-0.938,1.373-0.938
	c0.768,0,1.368,0.301,1.852,0.781l0.468-0.552c-0.565-0.555-1.263-0.915-2.345-0.915c-1.371,0-2.152,0.758-2.152,1.66
	c0,1.105,0.745,1.491,2.2,1.851c1.239,0.289,1.743,0.566,1.743,1.264c0,0.709-0.564,1.105-1.646,1.105
	c-0.878,0-1.492-0.359-1.972-0.914l-0.53,0.48C44.583,8.539,45.462,9.019,46.592,9.019 M38.14,7.888l0.529-0.48
	c0.48,0.555,1.094,0.914,1.972,0.914c1.082,0,1.647-0.396,1.647-1.105c0-0.697-0.504-0.975-1.743-1.264
	c-1.455-0.36-2.201-0.746-2.201-1.851c0-0.902,0.782-1.66,2.153-1.66c1.082,0,1.779,0.36,2.345,0.915l-0.469,0.552
	c-0.48-0.48-1.083-0.781-1.852-0.781c-0.987,0-1.372,0.458-1.372,0.938c0,0.613,0.433,0.864,1.54,1.132
	c1.587,0.383,2.406,0.767,2.406,2.005c0,1.156-1.035,1.816-2.466,1.816C39.498,9.019,38.621,8.539,38.14,7.888 M33.596,8.322
	c-0.709,0-1.155-0.348-1.155-1.01c0-0.83,0.758-1.502,3.476-1.961v1.973C35.267,7.951,34.486,8.322,33.596,8.322 M33.416,9.009
	c0.951,0,1.768-0.35,2.501-1.012c0,0.361,0.06,0.637,0.144,0.904h0.854c-0.133-0.326-0.18-0.797-0.18-1.566V4.463
	c0-1.264-0.614-2.021-2.033-2.021c-1.25,0-2.129,0.481-2.886,1.179l0.445,0.517c0.662-0.576,1.371-0.997,2.369-0.997
	c0.83,0,1.287,0.421,1.287,1.298v0.325c-3.223,0.492-4.293,1.407-4.293,2.657C31.624,8.408,32.284,9.009,33.416,9.009"/>
</svg>
